<svg width="280" height="398" viewBox="0 0 280 398" fill="none" xmlns="http://www.w3.org/2000/svg">
<path d="M88.875 42.4219L94.3594 58.4531C83.2031 61.9219 75.5156 68.1562 71.2969 77.1562C67.0781 86.0625 64.9688 96.2812 64.9688 107.812V136.922C64.9688 146.297 63.0469 154.828 59.2031 162.516C55.4531 170.109 49.4531 176.156 41.2031 180.656C33.0469 185.156 22.3125 187.406 9 187.406V170.25C19.5938 170.25 27.1875 167.25 31.7812 161.25C36.4688 155.25 38.8125 147.141 38.8125 136.922V107.812C38.8125 97.9688 40.3125 88.7813 43.3125 80.25C46.4062 71.625 51.5625 64.0781 58.7812 57.6094C66.0938 51.0469 76.125 45.9844 88.875 42.4219ZM94.3594 302.297L88.875 318.469C76.125 314.812 66.0938 309.75 58.7812 303.281C51.5625 296.812 46.4062 289.266 43.3125 280.641C40.3125 272.109 38.8125 262.922 38.8125 253.078V224.109C38.8125 217.266 37.7812 211.359 35.7188 206.391C33.6562 201.422 30.4219 197.578 26.0156 194.859C21.7031 192.047 16.0312 190.641 9 190.641V173.484C22.3125 173.484 33.0469 175.734 41.2031 180.234C49.4531 184.734 55.4531 190.828 59.2031 198.516C63.0469 206.109 64.9688 214.641 64.9688 224.109V253.078C64.9688 260.766 65.8594 267.891 67.6406 274.453C69.5156 281.016 72.5625 286.688 76.7812 291.469C81.0938 296.344 86.9531 299.953 94.3594 302.297Z" fill="#6366F1"/>
<path d="M140.812 58.4531L146.297 42.4219C159.141 45.9844 169.172 51.0469 176.391 57.6094C183.703 64.0781 188.859 71.625 191.859 80.25C194.859 88.7813 196.359 97.9688 196.359 107.812V136.922C196.359 143.672 197.391 149.578 199.453 154.641C201.516 159.609 204.703 163.453 209.016 166.172C213.422 168.891 219.141 170.25 226.172 170.25V186.141C212.953 186.141 202.219 184.031 193.969 179.812C185.719 175.5 179.672 169.641 175.828 162.234C172.078 154.734 170.203 146.297 170.203 136.922V107.812C170.203 100.125 169.312 93 167.531 86.4375C165.75 79.7813 162.703 74.0625 158.391 69.2812C154.172 64.4062 148.312 60.7969 140.812 58.4531ZM146.297 318.469L140.812 302.297C148.219 299.953 154.031 296.344 158.25 291.469C162.562 286.688 165.609 281.016 167.391 274.453C169.266 267.891 170.203 260.766 170.203 253.078V224.109C170.203 214.641 172.078 206.203 175.828 198.797C179.672 191.391 185.719 185.578 193.969 181.359C202.219 177.047 212.953 174.891 226.172 174.891V190.641C215.672 190.641 208.078 193.688 203.391 199.781C198.703 205.781 196.359 213.891 196.359 224.109V253.078C196.359 262.922 194.859 272.109 191.859 280.641C188.859 289.266 183.703 296.812 176.391 303.281C169.172 309.75 159.141 314.812 146.297 318.469Z" fill="#6366F1"/>
<ellipse cx="146" cy="101" rx="13" ry="14" fill="#6366F1"/>
<path d="M168.983 197.667L168.597 197.666C166.124 197.663 163.88 197.402 161.865 196.884C159.85 196.354 158.082 195.66 156.559 194.803C155.025 193.933 153.755 192.988 152.749 191.968C151.742 190.947 151.017 189.932 150.573 188.924L153.246 187.96C153.738 188.629 154.416 189.286 155.283 189.932C156.137 190.578 157.191 191.165 158.444 191.694C159.686 192.211 161.15 192.629 162.837 192.948C164.513 193.266 166.423 193.427 168.567 193.43L169.024 193.431C171.169 193.433 173.085 193.278 174.773 192.964C176.449 192.649 177.914 192.235 179.169 191.721C180.435 191.196 181.502 190.611 182.371 189.968C183.239 189.324 183.925 188.669 184.43 188.002L187.03 188.972C186.583 189.979 185.856 190.992 184.846 192.01C183.849 193.028 182.582 193.97 181.046 194.835C179.521 195.689 177.751 196.378 175.734 196.902C173.706 197.415 171.456 197.67 168.983 197.667Z" fill="#6366F1"/>
</svg>
