<?xml version="1.0" standalone="no"?>
<!DOCTYPE svg PUBLIC "-//W3C//DTD SVG 20010904//EN"
 "http://www.w3.org/TR/2001/REC-SVG-20010904/DTD/svg10.dtd">
<svg version="1.0" xmlns="http://www.w3.org/2000/svg"
 width="398.000000pt" height="398.000000pt" viewBox="0 0 398.000000 398.000000"
 preserveAspectRatio="xMidYMid meet">
<metadata>
Created by potrace 1.14, written by Peter Selinger 2001-2017
</metadata>
<g transform="translate(0.000000,398.000000) scale(0.100000,-0.100000)"
fill="#000000" stroke="none">
<path d="M2027 3478 c-16 -44 -27 -81 -25 -82 2 -1 28 -13 58 -26 67 -31 138
-102 174 -176 42 -86 55 -182 59 -454 4 -216 7 -253 26 -312 31 -97 96 -177
190 -235 l34 -21 -24 -12 c-13 -7 -50 -32 -81 -56 -60 -47 -112 -63 -183 -57
-54 5 -101 21 -115 39 -15 17 -40 19 -40 3 0 -7 10 -20 23 -31 43 -39 80 -51
154 -51 63 -1 73 -3 67 -16 -41 -97 -47 -138 -50 -341 -2 -113 -6 -240 -9
-282 -14 -186 -91 -318 -225 -384 -30 -15 -56 -28 -58 -29 -6 -5 47 -150 57
-153 14 -5 93 23 163 58 119 59 201 141 258 255 58 117 70 198 74 480 4 256
11 301 57 367 52 74 111 105 202 107 l37 1 0 104 0 103 -56 6 c-96 10 -165 58
-204 142 -30 66 -33 91 -36 325 -1 123 -5 248 -9 277 -3 29 -7 56 -7 60 -1 26
-56 156 -83 198 -33 52 -124 146 -162 168 -67 39 -106 57 -168 80 l-71 25 -27
-80z"/>
<path d="M1395 3529 c-109 -43 -162 -77 -236 -149 -82 -81 -126 -157 -154
-264 -22 -86 -26 -145 -29 -391 -3 -199 -5 -225 -25 -277 -39 -101 -132 -168
-234 -168 l-38 0 3 -102 3 -103 51 -6 c102 -13 178 -72 215 -168 20 -50 22
-78 25 -261 3 -269 10 -339 39 -436 47 -155 151 -273 309 -349 50 -24 106 -46
125 -47 33 -3 34 -2 57 66 13 39 24 73 24 76 0 3 -27 18 -60 34 -94 45 -187
162 -206 258 -2 13 -7 34 -10 48 -3 14 -8 93 -10 175 -8 288 -12 380 -16 395
-2 8 -8 31 -12 50 -20 87 -111 212 -180 247 l-31 16 25 16 c82 53 146 137 180
237 25 71 28 110 31 376 2 164 6 222 21 284 37 147 104 238 212 285 31 13 56
26 56 30 0 3 -11 36 -23 75 -27 80 -36 84 -112 53z"/>
<path d="M1991 3092 c-49 -26 -74 -75 -67 -134 11 -107 111 -161 193 -105 141
95 23 319 -126 239z"/>
</g>
</svg>
